<mxfile host="app.diagrams.net" modified="2023-10-31T08:18:52.832Z" agent="Mozilla/5.0 (Windows NT 10.0; Win64; x64) AppleWebKit/537.36 (KHTML, like Gecko) Chrome/114.0.0.0 YaBrowser/23.7.1.1266 (corp) Yowser/2.5 Safari/537.36" etag="SeZlS2E9qXS0oOBfPwug" version="22.0.8" type="device">
  <diagram name="Страница — 1" id="aDBvXGB8NHLlAT_3S4dR">
    <mxGraphModel dx="1247" dy="688" grid="1" gridSize="10" guides="1" tooltips="1" connect="1" arrows="1" fold="1" page="1" pageScale="1" pageWidth="827" pageHeight="1169" math="0" shadow="0">
      <root>
        <mxCell id="0" />
        <mxCell id="1" parent="0" />
        <mxCell id="UbY5IFC7gsjtDlBRMXSi-58" value="" style="group" vertex="1" connectable="0" parent="1">
          <mxGeometry x="470" y="270" width="190" height="90" as="geometry" />
        </mxCell>
        <mxCell id="UbY5IFC7gsjtDlBRMXSi-49" value="role" style="swimlane;fontStyle=0;childLayout=stackLayout;horizontal=1;startSize=30;horizontalStack=0;resizeParent=1;resizeParentMax=0;resizeLast=0;collapsible=1;marginBottom=0;html=1;align=center;" vertex="1" parent="UbY5IFC7gsjtDlBRMXSi-58">
          <mxGeometry x="30" width="160" height="90" as="geometry" />
        </mxCell>
        <mxCell id="UbY5IFC7gsjtDlBRMXSi-50" value="id&amp;nbsp; &amp;nbsp; &amp;nbsp; &amp;nbsp; &amp;nbsp; &amp;nbsp; &amp;nbsp; &amp;nbsp; &amp;nbsp; &amp;nbsp; &amp;nbsp; &amp;nbsp; &amp;nbsp; &amp;nbsp; &amp;nbsp; &amp;nbsp; &amp;nbsp;bigint" style="text;strokeColor=default;fillColor=none;align=left;verticalAlign=middle;spacingLeft=4;spacingRight=4;overflow=hidden;points=[[0,0.5],[1,0.5]];portConstraint=eastwest;rotatable=0;whiteSpace=wrap;html=1;" vertex="1" parent="UbY5IFC7gsjtDlBRMXSi-49">
          <mxGeometry y="30" width="160" height="30" as="geometry" />
        </mxCell>
        <mxCell id="UbY5IFC7gsjtDlBRMXSi-51" value="title&amp;nbsp; &amp;nbsp; &amp;nbsp; &amp;nbsp; &amp;nbsp; &amp;nbsp; &amp;nbsp; &amp;nbsp; &amp;nbsp; &amp;nbsp; &amp;nbsp; &amp;nbsp; &amp;nbsp; &amp;nbsp;varchar" style="text;strokeColor=default;fillColor=none;align=left;verticalAlign=middle;spacingLeft=4;spacingRight=4;overflow=hidden;points=[[0,0.5],[1,0.5]];portConstraint=eastwest;rotatable=0;whiteSpace=wrap;html=1;" vertex="1" parent="UbY5IFC7gsjtDlBRMXSi-49">
          <mxGeometry y="60" width="160" height="30" as="geometry" />
        </mxCell>
        <mxCell id="UbY5IFC7gsjtDlBRMXSi-53" value="" style="endArrow=none;html=1;rounded=0;exitX=0.502;exitY=1.009;exitDx=0;exitDy=0;exitPerimeter=0;entryX=0.5;entryY=-0.003;entryDx=0;entryDy=0;entryPerimeter=0;" edge="1" parent="UbY5IFC7gsjtDlBRMXSi-49" source="UbY5IFC7gsjtDlBRMXSi-51" target="UbY5IFC7gsjtDlBRMXSi-50">
          <mxGeometry width="50" height="50" relative="1" as="geometry">
            <mxPoint x="80" y="119.6099999999999" as="sourcePoint" />
            <mxPoint x="140" y="60" as="targetPoint" />
          </mxGeometry>
        </mxCell>
        <mxCell id="UbY5IFC7gsjtDlBRMXSi-54" value="" style="swimlane;fontStyle=0;childLayout=stackLayout;horizontal=1;startSize=30;horizontalStack=0;resizeParent=1;resizeParentMax=0;resizeLast=0;collapsible=1;marginBottom=0;whiteSpace=wrap;html=1;" vertex="1" parent="UbY5IFC7gsjtDlBRMXSi-58">
          <mxGeometry width="30" height="90" as="geometry" />
        </mxCell>
        <mxCell id="UbY5IFC7gsjtDlBRMXSi-55" value="PK" style="text;strokeColor=none;fillColor=none;align=left;verticalAlign=middle;spacingLeft=4;spacingRight=4;overflow=hidden;points=[[0,0.5],[1,0.5]];portConstraint=eastwest;rotatable=0;whiteSpace=wrap;html=1;labelBorderColor=none;fontStyle=1" vertex="1" parent="UbY5IFC7gsjtDlBRMXSi-54">
          <mxGeometry y="30" width="30" height="30" as="geometry" />
        </mxCell>
        <mxCell id="UbY5IFC7gsjtDlBRMXSi-56" value="&amp;nbsp;" style="text;strokeColor=none;fillColor=none;align=left;verticalAlign=middle;spacingLeft=4;spacingRight=4;overflow=hidden;points=[[0,0.5],[1,0.5]];portConstraint=eastwest;rotatable=0;whiteSpace=wrap;html=1;labelBorderColor=none;" vertex="1" parent="UbY5IFC7gsjtDlBRMXSi-54">
          <mxGeometry y="60" width="30" height="30" as="geometry" />
        </mxCell>
        <mxCell id="UbY5IFC7gsjtDlBRMXSi-59" value="" style="group" vertex="1" connectable="0" parent="1">
          <mxGeometry x="470" y="540" width="190" height="120" as="geometry" />
        </mxCell>
        <mxCell id="UbY5IFC7gsjtDlBRMXSi-40" value="diet" style="swimlane;fontStyle=0;childLayout=stackLayout;horizontal=1;startSize=30;horizontalStack=0;resizeParent=1;resizeParentMax=0;resizeLast=0;collapsible=1;marginBottom=0;html=1;align=center;" vertex="1" parent="UbY5IFC7gsjtDlBRMXSi-59">
          <mxGeometry x="30" width="160" height="120" as="geometry" />
        </mxCell>
        <mxCell id="UbY5IFC7gsjtDlBRMXSi-41" value="id&amp;nbsp; &amp;nbsp; &amp;nbsp; &amp;nbsp; &amp;nbsp; &amp;nbsp; &amp;nbsp; &amp;nbsp; &amp;nbsp; &amp;nbsp; &amp;nbsp; &amp;nbsp; &amp;nbsp; &amp;nbsp; &amp;nbsp; &amp;nbsp; &amp;nbsp;bigint" style="text;strokeColor=default;fillColor=none;align=left;verticalAlign=middle;spacingLeft=4;spacingRight=4;overflow=hidden;points=[[0,0.5],[1,0.5]];portConstraint=eastwest;rotatable=0;whiteSpace=wrap;html=1;" vertex="1" parent="UbY5IFC7gsjtDlBRMXSi-40">
          <mxGeometry y="30" width="160" height="30" as="geometry" />
        </mxCell>
        <mxCell id="UbY5IFC7gsjtDlBRMXSi-42" value="product_id&amp;nbsp; &amp;nbsp; &amp;nbsp; &amp;nbsp; &amp;nbsp; &amp;nbsp; &amp;nbsp; &amp;nbsp; &amp;nbsp; &amp;nbsp;bigint" style="text;strokeColor=default;fillColor=none;align=left;verticalAlign=middle;spacingLeft=4;spacingRight=4;overflow=hidden;points=[[0,0.5],[1,0.5]];portConstraint=eastwest;rotatable=0;whiteSpace=wrap;html=1;" vertex="1" parent="UbY5IFC7gsjtDlBRMXSi-40">
          <mxGeometry y="60" width="160" height="30" as="geometry" />
        </mxCell>
        <mxCell id="UbY5IFC7gsjtDlBRMXSi-43" value="eat_date&amp;nbsp; &amp;nbsp; &amp;nbsp; &amp;nbsp; &amp;nbsp; &amp;nbsp; &amp;nbsp; &amp;nbsp; &amp;nbsp; &amp;nbsp; &amp;nbsp; &amp;nbsp;date" style="text;strokeColor=default;fillColor=none;align=left;verticalAlign=middle;spacingLeft=4;spacingRight=4;overflow=hidden;points=[[0,0.5],[1,0.5]];portConstraint=eastwest;rotatable=0;whiteSpace=wrap;html=1;" vertex="1" parent="UbY5IFC7gsjtDlBRMXSi-40">
          <mxGeometry y="90" width="160" height="30" as="geometry" />
        </mxCell>
        <mxCell id="UbY5IFC7gsjtDlBRMXSi-44" value="" style="endArrow=none;html=1;rounded=0;exitX=0.5;exitY=0.987;exitDx=0;exitDy=0;exitPerimeter=0;entryX=0.5;entryY=-0.003;entryDx=0;entryDy=0;entryPerimeter=0;" edge="1" parent="UbY5IFC7gsjtDlBRMXSi-40" source="UbY5IFC7gsjtDlBRMXSi-43" target="UbY5IFC7gsjtDlBRMXSi-41">
          <mxGeometry width="50" height="50" relative="1" as="geometry">
            <mxPoint x="90" y="110" as="sourcePoint" />
            <mxPoint x="140" y="60" as="targetPoint" />
          </mxGeometry>
        </mxCell>
        <mxCell id="UbY5IFC7gsjtDlBRMXSi-45" value="" style="swimlane;fontStyle=0;childLayout=stackLayout;horizontal=1;startSize=30;horizontalStack=0;resizeParent=1;resizeParentMax=0;resizeLast=0;collapsible=1;marginBottom=0;whiteSpace=wrap;html=1;" vertex="1" parent="UbY5IFC7gsjtDlBRMXSi-59">
          <mxGeometry width="30" height="120" as="geometry" />
        </mxCell>
        <mxCell id="UbY5IFC7gsjtDlBRMXSi-46" value="PK" style="text;strokeColor=none;fillColor=none;align=left;verticalAlign=middle;spacingLeft=4;spacingRight=4;overflow=hidden;points=[[0,0.5],[1,0.5]];portConstraint=eastwest;rotatable=0;whiteSpace=wrap;html=1;labelBorderColor=none;fontStyle=1" vertex="1" parent="UbY5IFC7gsjtDlBRMXSi-45">
          <mxGeometry y="30" width="30" height="30" as="geometry" />
        </mxCell>
        <mxCell id="UbY5IFC7gsjtDlBRMXSi-47" value="&lt;b&gt;FK&lt;/b&gt;" style="text;strokeColor=none;fillColor=none;align=left;verticalAlign=middle;spacingLeft=4;spacingRight=4;overflow=hidden;points=[[0,0.5],[1,0.5]];portConstraint=eastwest;rotatable=0;whiteSpace=wrap;html=1;labelBorderColor=none;" vertex="1" parent="UbY5IFC7gsjtDlBRMXSi-45">
          <mxGeometry y="60" width="30" height="30" as="geometry" />
        </mxCell>
        <mxCell id="UbY5IFC7gsjtDlBRMXSi-48" value="&amp;nbsp;" style="text;strokeColor=none;fillColor=none;align=left;verticalAlign=middle;spacingLeft=4;spacingRight=4;overflow=hidden;points=[[0,0.5],[1,0.5]];portConstraint=eastwest;rotatable=0;whiteSpace=wrap;html=1;labelBorderColor=none;" vertex="1" parent="UbY5IFC7gsjtDlBRMXSi-45">
          <mxGeometry y="90" width="30" height="30" as="geometry" />
        </mxCell>
        <mxCell id="UbY5IFC7gsjtDlBRMXSi-60" value="" style="group" vertex="1" connectable="0" parent="1">
          <mxGeometry x="960" y="540" width="230" height="150" as="geometry" />
        </mxCell>
        <mxCell id="UbY5IFC7gsjtDlBRMXSi-19" value="group" style="swimlane;fontStyle=0;childLayout=stackLayout;horizontal=1;startSize=30;horizontalStack=0;resizeParent=1;resizeParentMax=0;resizeLast=0;collapsible=1;marginBottom=0;html=1;align=center;" vertex="1" parent="UbY5IFC7gsjtDlBRMXSi-60">
          <mxGeometry x="30" width="200" height="150" as="geometry" />
        </mxCell>
        <mxCell id="UbY5IFC7gsjtDlBRMXSi-20" value="id&amp;nbsp; &amp;nbsp; &amp;nbsp; &amp;nbsp; &amp;nbsp; &amp;nbsp; &amp;nbsp; &amp;nbsp; &amp;nbsp; &amp;nbsp; &amp;nbsp; &amp;nbsp; &amp;nbsp; &amp;nbsp; &amp;nbsp; &amp;nbsp; &amp;nbsp; &amp;nbsp; &amp;nbsp; &amp;nbsp; &amp;nbsp; &amp;nbsp; &amp;nbsp;bigint" style="text;strokeColor=default;fillColor=none;align=left;verticalAlign=middle;spacingLeft=4;spacingRight=4;overflow=hidden;points=[[0,0.5],[1,0.5]];portConstraint=eastwest;rotatable=0;whiteSpace=wrap;html=1;" vertex="1" parent="UbY5IFC7gsjtDlBRMXSi-19">
          <mxGeometry y="30" width="200" height="30" as="geometry" />
        </mxCell>
        <mxCell id="UbY5IFC7gsjtDlBRMXSi-21" value="group_id&amp;nbsp; &amp;nbsp; &amp;nbsp; &amp;nbsp; &amp;nbsp; &amp;nbsp; &amp;nbsp; &amp;nbsp; &amp;nbsp; &amp;nbsp; &amp;nbsp; &amp;nbsp; &amp;nbsp; &amp;nbsp; &amp;nbsp; &amp;nbsp; &amp;nbsp; bigint" style="text;strokeColor=default;fillColor=none;align=left;verticalAlign=middle;spacingLeft=4;spacingRight=4;overflow=hidden;points=[[0,0.5],[1,0.5]];portConstraint=eastwest;rotatable=0;whiteSpace=wrap;html=1;" vertex="1" parent="UbY5IFC7gsjtDlBRMXSi-19">
          <mxGeometry y="60" width="200" height="30" as="geometry" />
        </mxCell>
        <mxCell id="UbY5IFC7gsjtDlBRMXSi-22" value="coach_id&amp;nbsp; &amp;nbsp; &amp;nbsp; &amp;nbsp; &amp;nbsp; &amp;nbsp; &amp;nbsp; &amp;nbsp; &amp;nbsp; &amp;nbsp; &amp;nbsp; &amp;nbsp; &amp;nbsp; &amp;nbsp; &amp;nbsp; &amp;nbsp; &amp;nbsp;bigint" style="text;strokeColor=default;fillColor=none;align=left;verticalAlign=middle;spacingLeft=4;spacingRight=4;overflow=hidden;points=[[0,0.5],[1,0.5]];portConstraint=eastwest;rotatable=0;whiteSpace=wrap;html=1;" vertex="1" parent="UbY5IFC7gsjtDlBRMXSi-19">
          <mxGeometry y="90" width="200" height="30" as="geometry" />
        </mxCell>
        <mxCell id="UbY5IFC7gsjtDlBRMXSi-23" value="client_id&amp;nbsp; &amp;nbsp; &amp;nbsp; &amp;nbsp; &amp;nbsp; &amp;nbsp; &amp;nbsp; &amp;nbsp; &amp;nbsp; &amp;nbsp; &amp;nbsp; &amp;nbsp; &amp;nbsp; &amp;nbsp; &amp;nbsp; &amp;nbsp; &amp;nbsp; &amp;nbsp;bigint" style="text;strokeColor=default;fillColor=none;align=left;verticalAlign=middle;spacingLeft=4;spacingRight=4;overflow=hidden;points=[[0,0.5],[1,0.5]];portConstraint=eastwest;rotatable=0;whiteSpace=wrap;html=1;" vertex="1" parent="UbY5IFC7gsjtDlBRMXSi-19">
          <mxGeometry y="120" width="200" height="30" as="geometry" />
        </mxCell>
        <mxCell id="UbY5IFC7gsjtDlBRMXSi-24" value="" style="endArrow=none;html=1;rounded=0;exitX=0.5;exitY=0.987;exitDx=0;exitDy=0;exitPerimeter=0;entryX=0.5;entryY=-0.003;entryDx=0;entryDy=0;entryPerimeter=0;" edge="1" parent="UbY5IFC7gsjtDlBRMXSi-19" source="UbY5IFC7gsjtDlBRMXSi-23" target="UbY5IFC7gsjtDlBRMXSi-20">
          <mxGeometry width="50" height="50" relative="1" as="geometry">
            <mxPoint x="90" y="110" as="sourcePoint" />
            <mxPoint x="140" y="60" as="targetPoint" />
          </mxGeometry>
        </mxCell>
        <mxCell id="UbY5IFC7gsjtDlBRMXSi-25" value="" style="swimlane;fontStyle=0;childLayout=stackLayout;horizontal=1;startSize=30;horizontalStack=0;resizeParent=1;resizeParentMax=0;resizeLast=0;collapsible=1;marginBottom=0;whiteSpace=wrap;html=1;" vertex="1" parent="UbY5IFC7gsjtDlBRMXSi-60">
          <mxGeometry width="30" height="150" as="geometry">
            <mxRectangle x="510" y="200" width="50" height="40" as="alternateBounds" />
          </mxGeometry>
        </mxCell>
        <mxCell id="UbY5IFC7gsjtDlBRMXSi-26" value="PK" style="text;strokeColor=none;fillColor=none;align=left;verticalAlign=middle;spacingLeft=4;spacingRight=4;overflow=hidden;points=[[0,0.5],[1,0.5]];portConstraint=eastwest;rotatable=0;whiteSpace=wrap;html=1;labelBorderColor=none;fontStyle=1" vertex="1" parent="UbY5IFC7gsjtDlBRMXSi-25">
          <mxGeometry y="30" width="30" height="30" as="geometry" />
        </mxCell>
        <mxCell id="UbY5IFC7gsjtDlBRMXSi-28" value="&amp;nbsp;" style="text;strokeColor=none;fillColor=none;align=left;verticalAlign=middle;spacingLeft=4;spacingRight=4;overflow=hidden;points=[[0,0.5],[1,0.5]];portConstraint=eastwest;rotatable=0;whiteSpace=wrap;html=1;labelBorderColor=none;" vertex="1" parent="UbY5IFC7gsjtDlBRMXSi-25">
          <mxGeometry y="60" width="30" height="30" as="geometry" />
        </mxCell>
        <mxCell id="UbY5IFC7gsjtDlBRMXSi-30" value="FK" style="text;strokeColor=none;fillColor=none;align=left;verticalAlign=middle;spacingLeft=4;spacingRight=4;overflow=hidden;points=[[0,0.5],[1,0.5]];portConstraint=eastwest;rotatable=0;whiteSpace=wrap;html=1;labelBorderColor=none;fontStyle=1" vertex="1" parent="UbY5IFC7gsjtDlBRMXSi-25">
          <mxGeometry y="90" width="30" height="30" as="geometry" />
        </mxCell>
        <mxCell id="UbY5IFC7gsjtDlBRMXSi-29" value="FK" style="text;strokeColor=none;fillColor=none;align=left;verticalAlign=middle;spacingLeft=4;spacingRight=4;overflow=hidden;points=[[0,0.5],[1,0.5]];portConstraint=eastwest;rotatable=0;whiteSpace=wrap;html=1;labelBorderColor=none;fontStyle=1" vertex="1" parent="UbY5IFC7gsjtDlBRMXSi-25">
          <mxGeometry y="120" width="30" height="30" as="geometry" />
        </mxCell>
        <mxCell id="UbY5IFC7gsjtDlBRMXSi-61" value="" style="group" vertex="1" connectable="0" parent="1">
          <mxGeometry x="960" y="270" width="230" height="150" as="geometry" />
        </mxCell>
        <mxCell id="aeDh_aWG_HRDVJIjq2gt-61" value="result" style="swimlane;fontStyle=0;childLayout=stackLayout;horizontal=1;startSize=30;horizontalStack=0;resizeParent=1;resizeParentMax=0;resizeLast=0;collapsible=1;marginBottom=0;html=1;align=center;" parent="UbY5IFC7gsjtDlBRMXSi-61" vertex="1">
          <mxGeometry x="30" width="200" height="150" as="geometry" />
        </mxCell>
        <mxCell id="aeDh_aWG_HRDVJIjq2gt-62" value="id&amp;nbsp; &amp;nbsp; &amp;nbsp; &amp;nbsp; &amp;nbsp; &amp;nbsp; &amp;nbsp; &amp;nbsp; &amp;nbsp; &amp;nbsp; &amp;nbsp; &amp;nbsp; &amp;nbsp; &amp;nbsp; &amp;nbsp; &amp;nbsp; &amp;nbsp; &amp;nbsp; &amp;nbsp; &amp;nbsp; &amp;nbsp; &amp;nbsp; &amp;nbsp;bigint" style="text;strokeColor=default;fillColor=none;align=left;verticalAlign=middle;spacingLeft=4;spacingRight=4;overflow=hidden;points=[[0,0.5],[1,0.5]];portConstraint=eastwest;rotatable=0;whiteSpace=wrap;html=1;" parent="aeDh_aWG_HRDVJIjq2gt-61" vertex="1">
          <mxGeometry y="30" width="200" height="30" as="geometry" />
        </mxCell>
        <mxCell id="aeDh_aWG_HRDVJIjq2gt-63" value="person_id&amp;nbsp; &amp;nbsp; &amp;nbsp; &amp;nbsp; &amp;nbsp; &amp;nbsp; &amp;nbsp; &amp;nbsp; &amp;nbsp; &amp;nbsp; &amp;nbsp; &amp;nbsp; &amp;nbsp; &amp;nbsp; &amp;nbsp; &amp;nbsp; bigint" style="text;strokeColor=default;fillColor=none;align=left;verticalAlign=middle;spacingLeft=4;spacingRight=4;overflow=hidden;points=[[0,0.5],[1,0.5]];portConstraint=eastwest;rotatable=0;whiteSpace=wrap;html=1;" parent="aeDh_aWG_HRDVJIjq2gt-61" vertex="1">
          <mxGeometry y="60" width="200" height="30" as="geometry" />
        </mxCell>
        <mxCell id="aeDh_aWG_HRDVJIjq2gt-64" value="completion_date&amp;nbsp; &amp;nbsp; &amp;nbsp; &amp;nbsp; &amp;nbsp; &amp;nbsp; &amp;nbsp; &amp;nbsp; &amp;nbsp; &amp;nbsp; &amp;nbsp; &amp;nbsp;date" style="text;strokeColor=default;fillColor=none;align=left;verticalAlign=middle;spacingLeft=4;spacingRight=4;overflow=hidden;points=[[0,0.5],[1,0.5]];portConstraint=eastwest;rotatable=0;whiteSpace=wrap;html=1;" parent="aeDh_aWG_HRDVJIjq2gt-61" vertex="1">
          <mxGeometry y="90" width="200" height="30" as="geometry" />
        </mxCell>
        <mxCell id="aeDh_aWG_HRDVJIjq2gt-65" value="estimation&amp;nbsp; &amp;nbsp; &amp;nbsp; &amp;nbsp; &amp;nbsp; &amp;nbsp; &amp;nbsp; &amp;nbsp; &amp;nbsp; &amp;nbsp; &amp;nbsp; &amp;nbsp; &amp;nbsp; &amp;nbsp; &amp;nbsp;integer" style="text;strokeColor=default;fillColor=none;align=left;verticalAlign=middle;spacingLeft=4;spacingRight=4;overflow=hidden;points=[[0,0.5],[1,0.5]];portConstraint=eastwest;rotatable=0;whiteSpace=wrap;html=1;" parent="aeDh_aWG_HRDVJIjq2gt-61" vertex="1">
          <mxGeometry y="120" width="200" height="30" as="geometry" />
        </mxCell>
        <mxCell id="aeDh_aWG_HRDVJIjq2gt-66" value="" style="endArrow=none;html=1;rounded=0;exitX=0.5;exitY=0.987;exitDx=0;exitDy=0;exitPerimeter=0;entryX=0.5;entryY=-0.003;entryDx=0;entryDy=0;entryPerimeter=0;" parent="aeDh_aWG_HRDVJIjq2gt-61" source="aeDh_aWG_HRDVJIjq2gt-65" target="aeDh_aWG_HRDVJIjq2gt-62" edge="1">
          <mxGeometry width="50" height="50" relative="1" as="geometry">
            <mxPoint x="90" y="110" as="sourcePoint" />
            <mxPoint x="140" y="60" as="targetPoint" />
          </mxGeometry>
        </mxCell>
        <mxCell id="aeDh_aWG_HRDVJIjq2gt-107" value="" style="swimlane;fontStyle=0;childLayout=stackLayout;horizontal=1;startSize=30;horizontalStack=0;resizeParent=1;resizeParentMax=0;resizeLast=0;collapsible=1;marginBottom=0;whiteSpace=wrap;html=1;" parent="UbY5IFC7gsjtDlBRMXSi-61" vertex="1">
          <mxGeometry width="30" height="150" as="geometry">
            <mxRectangle x="510" y="200" width="50" height="40" as="alternateBounds" />
          </mxGeometry>
        </mxCell>
        <mxCell id="aeDh_aWG_HRDVJIjq2gt-108" value="PK" style="text;strokeColor=none;fillColor=none;align=left;verticalAlign=middle;spacingLeft=4;spacingRight=4;overflow=hidden;points=[[0,0.5],[1,0.5]];portConstraint=eastwest;rotatable=0;whiteSpace=wrap;html=1;labelBorderColor=none;fontStyle=1" parent="aeDh_aWG_HRDVJIjq2gt-107" vertex="1">
          <mxGeometry y="30" width="30" height="30" as="geometry" />
        </mxCell>
        <mxCell id="aeDh_aWG_HRDVJIjq2gt-109" value="FK" style="text;strokeColor=none;fillColor=none;align=left;verticalAlign=middle;spacingLeft=4;spacingRight=4;overflow=hidden;points=[[0,0.5],[1,0.5]];portConstraint=eastwest;rotatable=0;whiteSpace=wrap;html=1;labelBorderColor=none;fontStyle=1" parent="aeDh_aWG_HRDVJIjq2gt-107" vertex="1">
          <mxGeometry y="60" width="30" height="30" as="geometry" />
        </mxCell>
        <mxCell id="aeDh_aWG_HRDVJIjq2gt-110" value="&amp;nbsp;" style="text;strokeColor=none;fillColor=none;align=left;verticalAlign=middle;spacingLeft=4;spacingRight=4;overflow=hidden;points=[[0,0.5],[1,0.5]];portConstraint=eastwest;rotatable=0;whiteSpace=wrap;html=1;labelBorderColor=none;" parent="aeDh_aWG_HRDVJIjq2gt-107" vertex="1">
          <mxGeometry y="90" width="30" height="30" as="geometry" />
        </mxCell>
        <mxCell id="aeDh_aWG_HRDVJIjq2gt-111" value="&amp;nbsp;" style="text;strokeColor=none;fillColor=none;align=left;verticalAlign=middle;spacingLeft=4;spacingRight=4;overflow=hidden;points=[[0,0.5],[1,0.5]];portConstraint=eastwest;rotatable=0;whiteSpace=wrap;html=1;labelBorderColor=none;" parent="aeDh_aWG_HRDVJIjq2gt-107" vertex="1">
          <mxGeometry y="120" width="30" height="30" as="geometry" />
        </mxCell>
        <mxCell id="UbY5IFC7gsjtDlBRMXSi-62" value="" style="group" vertex="1" connectable="0" parent="1">
          <mxGeometry x="720" y="360" width="180" height="270" as="geometry" />
        </mxCell>
        <mxCell id="aeDh_aWG_HRDVJIjq2gt-15" value="person" style="swimlane;fontStyle=0;childLayout=stackLayout;horizontal=1;startSize=30;horizontalStack=0;resizeParent=1;resizeParentMax=0;resizeLast=0;collapsible=1;marginBottom=0;html=1;align=center;" parent="UbY5IFC7gsjtDlBRMXSi-62" vertex="1">
          <mxGeometry x="30" width="150" height="270" as="geometry" />
        </mxCell>
        <mxCell id="aeDh_aWG_HRDVJIjq2gt-16" value="id&amp;nbsp; &amp;nbsp; &amp;nbsp; &amp;nbsp; &amp;nbsp; &amp;nbsp; &amp;nbsp; &amp;nbsp; &amp;nbsp; &amp;nbsp; &amp;nbsp; &amp;nbsp; &amp;nbsp; &amp;nbsp; &amp;nbsp; bigint" style="text;strokeColor=default;fillColor=none;align=left;verticalAlign=middle;spacingLeft=4;spacingRight=4;overflow=hidden;points=[[0,0.5],[1,0.5]];portConstraint=eastwest;rotatable=0;whiteSpace=wrap;html=1;" parent="aeDh_aWG_HRDVJIjq2gt-15" vertex="1">
          <mxGeometry y="30" width="150" height="30" as="geometry" />
        </mxCell>
        <mxCell id="aeDh_aWG_HRDVJIjq2gt-21" value="name&amp;nbsp; &amp;nbsp; &amp;nbsp; &amp;nbsp; &amp;nbsp; &amp;nbsp; &amp;nbsp; &amp;nbsp; &amp;nbsp; &amp;nbsp; varchar" style="text;strokeColor=default;fillColor=none;align=left;verticalAlign=middle;spacingLeft=4;spacingRight=4;overflow=hidden;points=[[0,0.5],[1,0.5]];portConstraint=eastwest;rotatable=0;whiteSpace=wrap;html=1;" parent="aeDh_aWG_HRDVJIjq2gt-15" vertex="1">
          <mxGeometry y="60" width="150" height="30" as="geometry" />
        </mxCell>
        <mxCell id="aeDh_aWG_HRDVJIjq2gt-22" value="age&amp;nbsp; &amp;nbsp; &amp;nbsp; &amp;nbsp; &amp;nbsp; &amp;nbsp; &amp;nbsp; &amp;nbsp; &amp;nbsp; &amp;nbsp; &amp;nbsp; &amp;nbsp; integer" style="text;strokeColor=default;fillColor=none;align=left;verticalAlign=middle;spacingLeft=4;spacingRight=4;overflow=hidden;points=[[0,0.5],[1,0.5]];portConstraint=eastwest;rotatable=0;whiteSpace=wrap;html=1;" parent="aeDh_aWG_HRDVJIjq2gt-15" vertex="1">
          <mxGeometry y="90" width="150" height="30" as="geometry" />
        </mxCell>
        <mxCell id="aeDh_aWG_HRDVJIjq2gt-23" value="gender&amp;nbsp; &amp;nbsp; &amp;nbsp; &amp;nbsp; &amp;nbsp; &amp;nbsp; &amp;nbsp; &amp;nbsp; &amp;nbsp; varchar" style="text;strokeColor=default;fillColor=none;align=left;verticalAlign=middle;spacingLeft=4;spacingRight=4;overflow=hidden;points=[[0,0.5],[1,0.5]];portConstraint=eastwest;rotatable=0;whiteSpace=wrap;html=1;" parent="aeDh_aWG_HRDVJIjq2gt-15" vertex="1">
          <mxGeometry y="120" width="150" height="30" as="geometry" />
        </mxCell>
        <mxCell id="UbY5IFC7gsjtDlBRMXSi-6" value="phone&amp;nbsp; &amp;nbsp; &amp;nbsp; &amp;nbsp; &amp;nbsp; &amp;nbsp; &amp;nbsp; &amp;nbsp; &amp;nbsp; &amp;nbsp;varchar" style="text;strokeColor=default;fillColor=none;align=left;verticalAlign=middle;spacingLeft=4;spacingRight=4;overflow=hidden;points=[[0,0.5],[1,0.5]];portConstraint=eastwest;rotatable=0;whiteSpace=wrap;html=1;" vertex="1" parent="aeDh_aWG_HRDVJIjq2gt-15">
          <mxGeometry y="150" width="150" height="30" as="geometry" />
        </mxCell>
        <mxCell id="UbY5IFC7gsjtDlBRMXSi-7" value="role_id&amp;nbsp; &amp;nbsp; &amp;nbsp; &amp;nbsp; &amp;nbsp; &amp;nbsp; &amp;nbsp; &amp;nbsp; &amp;nbsp; &amp;nbsp; integer" style="text;strokeColor=default;fillColor=none;align=left;verticalAlign=middle;spacingLeft=4;spacingRight=4;overflow=hidden;points=[[0,0.5],[1,0.5]];portConstraint=eastwest;rotatable=0;whiteSpace=wrap;html=1;" vertex="1" parent="aeDh_aWG_HRDVJIjq2gt-15">
          <mxGeometry y="180" width="150" height="30" as="geometry" />
        </mxCell>
        <mxCell id="UbY5IFC7gsjtDlBRMXSi-8" value="diet_id&amp;nbsp; &amp;nbsp; &amp;nbsp; &amp;nbsp; &amp;nbsp; &amp;nbsp; &amp;nbsp; &amp;nbsp; &amp;nbsp; &amp;nbsp; integer" style="text;strokeColor=default;fillColor=none;align=left;verticalAlign=middle;spacingLeft=4;spacingRight=4;overflow=hidden;points=[[0,0.5],[1,0.5]];portConstraint=eastwest;rotatable=0;whiteSpace=wrap;html=1;" vertex="1" parent="aeDh_aWG_HRDVJIjq2gt-15">
          <mxGeometry y="210" width="150" height="30" as="geometry" />
        </mxCell>
        <mxCell id="UbY5IFC7gsjtDlBRMXSi-9" value="purposes_id&amp;nbsp; &amp;nbsp; &amp;nbsp; &amp;nbsp; &amp;nbsp; &amp;nbsp; &amp;nbsp;bigint" style="text;strokeColor=default;fillColor=none;align=left;verticalAlign=middle;spacingLeft=4;spacingRight=4;overflow=hidden;points=[[0,0.5],[1,0.5]];portConstraint=eastwest;rotatable=0;whiteSpace=wrap;html=1;" vertex="1" parent="aeDh_aWG_HRDVJIjq2gt-15">
          <mxGeometry y="240" width="150" height="30" as="geometry" />
        </mxCell>
        <mxCell id="aeDh_aWG_HRDVJIjq2gt-39" value="" style="endArrow=none;html=1;rounded=0;exitX=0.5;exitY=1;exitDx=0;exitDy=0;exitPerimeter=0;entryX=0.5;entryY=-0.003;entryDx=0;entryDy=0;entryPerimeter=0;" parent="aeDh_aWG_HRDVJIjq2gt-15" source="UbY5IFC7gsjtDlBRMXSi-9" target="aeDh_aWG_HRDVJIjq2gt-16" edge="1">
          <mxGeometry width="50" height="50" relative="1" as="geometry">
            <mxPoint x="90" y="110" as="sourcePoint" />
            <mxPoint x="140" y="60" as="targetPoint" />
          </mxGeometry>
        </mxCell>
        <mxCell id="aeDh_aWG_HRDVJIjq2gt-102" value="" style="swimlane;fontStyle=0;childLayout=stackLayout;horizontal=1;startSize=30;horizontalStack=0;resizeParent=1;resizeParentMax=0;resizeLast=0;collapsible=1;marginBottom=0;whiteSpace=wrap;html=1;" parent="UbY5IFC7gsjtDlBRMXSi-62" vertex="1">
          <mxGeometry width="30" height="270" as="geometry" />
        </mxCell>
        <mxCell id="aeDh_aWG_HRDVJIjq2gt-103" value="PK" style="text;strokeColor=none;fillColor=none;align=left;verticalAlign=middle;spacingLeft=4;spacingRight=4;overflow=hidden;points=[[0,0.5],[1,0.5]];portConstraint=eastwest;rotatable=0;whiteSpace=wrap;html=1;labelBorderColor=none;fontStyle=1" parent="aeDh_aWG_HRDVJIjq2gt-102" vertex="1">
          <mxGeometry y="30" width="30" height="30" as="geometry" />
        </mxCell>
        <mxCell id="aeDh_aWG_HRDVJIjq2gt-104" value="&amp;nbsp;" style="text;strokeColor=none;fillColor=none;align=left;verticalAlign=middle;spacingLeft=4;spacingRight=4;overflow=hidden;points=[[0,0.5],[1,0.5]];portConstraint=eastwest;rotatable=0;whiteSpace=wrap;html=1;labelBorderColor=none;fontStyle=1" parent="aeDh_aWG_HRDVJIjq2gt-102" vertex="1">
          <mxGeometry y="60" width="30" height="30" as="geometry" />
        </mxCell>
        <mxCell id="UbY5IFC7gsjtDlBRMXSi-13" value="&amp;nbsp;" style="text;strokeColor=none;fillColor=none;align=left;verticalAlign=middle;spacingLeft=4;spacingRight=4;overflow=hidden;points=[[0,0.5],[1,0.5]];portConstraint=eastwest;rotatable=0;whiteSpace=wrap;html=1;labelBorderColor=none;fontStyle=1" vertex="1" parent="aeDh_aWG_HRDVJIjq2gt-102">
          <mxGeometry y="90" width="30" height="30" as="geometry" />
        </mxCell>
        <mxCell id="UbY5IFC7gsjtDlBRMXSi-14" value="&amp;nbsp;" style="text;strokeColor=none;fillColor=none;align=left;verticalAlign=middle;spacingLeft=4;spacingRight=4;overflow=hidden;points=[[0,0.5],[1,0.5]];portConstraint=eastwest;rotatable=0;whiteSpace=wrap;html=1;labelBorderColor=none;fontStyle=1" vertex="1" parent="aeDh_aWG_HRDVJIjq2gt-102">
          <mxGeometry y="120" width="30" height="30" as="geometry" />
        </mxCell>
        <mxCell id="UbY5IFC7gsjtDlBRMXSi-15" value="&amp;nbsp;" style="text;strokeColor=none;fillColor=none;align=left;verticalAlign=middle;spacingLeft=4;spacingRight=4;overflow=hidden;points=[[0,0.5],[1,0.5]];portConstraint=eastwest;rotatable=0;whiteSpace=wrap;html=1;labelBorderColor=none;fontStyle=1" vertex="1" parent="aeDh_aWG_HRDVJIjq2gt-102">
          <mxGeometry y="150" width="30" height="30" as="geometry" />
        </mxCell>
        <mxCell id="UbY5IFC7gsjtDlBRMXSi-16" value="FK" style="text;strokeColor=none;fillColor=none;align=left;verticalAlign=middle;spacingLeft=4;spacingRight=4;overflow=hidden;points=[[0,0.5],[1,0.5]];portConstraint=eastwest;rotatable=0;whiteSpace=wrap;html=1;labelBorderColor=none;fontStyle=1" vertex="1" parent="aeDh_aWG_HRDVJIjq2gt-102">
          <mxGeometry y="180" width="30" height="30" as="geometry" />
        </mxCell>
        <mxCell id="UbY5IFC7gsjtDlBRMXSi-17" value="FK" style="text;strokeColor=none;fillColor=none;align=left;verticalAlign=middle;spacingLeft=4;spacingRight=4;overflow=hidden;points=[[0,0.5],[1,0.5]];portConstraint=eastwest;rotatable=0;whiteSpace=wrap;html=1;labelBorderColor=none;fontStyle=1" vertex="1" parent="aeDh_aWG_HRDVJIjq2gt-102">
          <mxGeometry y="210" width="30" height="30" as="geometry" />
        </mxCell>
        <mxCell id="UbY5IFC7gsjtDlBRMXSi-12" value="FK" style="text;strokeColor=none;fillColor=none;align=left;verticalAlign=middle;spacingLeft=4;spacingRight=4;overflow=hidden;points=[[0,0.5],[1,0.5]];portConstraint=eastwest;rotatable=0;whiteSpace=wrap;html=1;labelBorderColor=none;fontStyle=1" vertex="1" parent="aeDh_aWG_HRDVJIjq2gt-102">
          <mxGeometry y="240" width="30" height="30" as="geometry" />
        </mxCell>
        <mxCell id="UbY5IFC7gsjtDlBRMXSi-63" value="" style="group" vertex="1" connectable="0" parent="1">
          <mxGeometry x="490" y="730" width="170" height="120" as="geometry" />
        </mxCell>
        <mxCell id="aeDh_aWG_HRDVJIjq2gt-40" value="purposes" style="swimlane;fontStyle=0;childLayout=stackLayout;horizontal=1;startSize=30;horizontalStack=0;resizeParent=1;resizeParentMax=0;resizeLast=0;collapsible=1;marginBottom=0;html=1;align=center;" parent="UbY5IFC7gsjtDlBRMXSi-63" vertex="1">
          <mxGeometry x="30" width="140" height="120" as="geometry" />
        </mxCell>
        <mxCell id="aeDh_aWG_HRDVJIjq2gt-41" value="id&amp;nbsp; &amp;nbsp; &amp;nbsp; &amp;nbsp; &amp;nbsp; &amp;nbsp; &amp;nbsp; &amp;nbsp; &amp;nbsp; &amp;nbsp; &amp;nbsp; &amp;nbsp; &amp;nbsp; &amp;nbsp;bigint" style="text;strokeColor=default;fillColor=none;align=left;verticalAlign=middle;spacingLeft=4;spacingRight=4;overflow=hidden;points=[[0,0.5],[1,0.5]];portConstraint=eastwest;rotatable=0;whiteSpace=wrap;html=1;" parent="aeDh_aWG_HRDVJIjq2gt-40" vertex="1">
          <mxGeometry y="30" width="140" height="30" as="geometry" />
        </mxCell>
        <mxCell id="aeDh_aWG_HRDVJIjq2gt-43" value="title&amp;nbsp; &amp;nbsp; &amp;nbsp; &amp;nbsp; &amp;nbsp; &amp;nbsp; &amp;nbsp; &amp;nbsp; &amp;nbsp; &amp;nbsp; &amp;nbsp;varchar" style="text;strokeColor=default;fillColor=none;align=left;verticalAlign=middle;spacingLeft=4;spacingRight=4;overflow=hidden;points=[[0,0.5],[1,0.5]];portConstraint=eastwest;rotatable=0;whiteSpace=wrap;html=1;" parent="aeDh_aWG_HRDVJIjq2gt-40" vertex="1">
          <mxGeometry y="60" width="140" height="30" as="geometry" />
        </mxCell>
        <mxCell id="aeDh_aWG_HRDVJIjq2gt-44" value="description&amp;nbsp; &amp;nbsp; &amp;nbsp; &amp;nbsp; &amp;nbsp;varchar" style="text;strokeColor=default;fillColor=none;align=left;verticalAlign=middle;spacingLeft=4;spacingRight=4;overflow=hidden;points=[[0,0.5],[1,0.5]];portConstraint=eastwest;rotatable=0;whiteSpace=wrap;html=1;" parent="aeDh_aWG_HRDVJIjq2gt-40" vertex="1">
          <mxGeometry y="90" width="140" height="30" as="geometry" />
        </mxCell>
        <mxCell id="aeDh_aWG_HRDVJIjq2gt-45" value="" style="endArrow=none;html=1;rounded=0;exitX=0.5;exitY=0.987;exitDx=0;exitDy=0;exitPerimeter=0;entryX=0.5;entryY=-0.003;entryDx=0;entryDy=0;entryPerimeter=0;" parent="aeDh_aWG_HRDVJIjq2gt-40" source="aeDh_aWG_HRDVJIjq2gt-44" target="aeDh_aWG_HRDVJIjq2gt-41" edge="1">
          <mxGeometry width="50" height="50" relative="1" as="geometry">
            <mxPoint x="90" y="110" as="sourcePoint" />
            <mxPoint x="140" y="60" as="targetPoint" />
          </mxGeometry>
        </mxCell>
        <mxCell id="aeDh_aWG_HRDVJIjq2gt-87" value="" style="swimlane;fontStyle=0;childLayout=stackLayout;horizontal=1;startSize=30;horizontalStack=0;resizeParent=1;resizeParentMax=0;resizeLast=0;collapsible=1;marginBottom=0;whiteSpace=wrap;html=1;" parent="UbY5IFC7gsjtDlBRMXSi-63" vertex="1">
          <mxGeometry width="30" height="120" as="geometry" />
        </mxCell>
        <mxCell id="aeDh_aWG_HRDVJIjq2gt-88" value="PK" style="text;strokeColor=none;fillColor=none;align=left;verticalAlign=middle;spacingLeft=4;spacingRight=4;overflow=hidden;points=[[0,0.5],[1,0.5]];portConstraint=eastwest;rotatable=0;whiteSpace=wrap;html=1;labelBorderColor=none;fontStyle=1" parent="aeDh_aWG_HRDVJIjq2gt-87" vertex="1">
          <mxGeometry y="30" width="30" height="30" as="geometry" />
        </mxCell>
        <mxCell id="UbY5IFC7gsjtDlBRMXSi-18" value="&amp;nbsp;" style="text;strokeColor=none;fillColor=none;align=left;verticalAlign=middle;spacingLeft=4;spacingRight=4;overflow=hidden;points=[[0,0.5],[1,0.5]];portConstraint=eastwest;rotatable=0;whiteSpace=wrap;html=1;labelBorderColor=none;" vertex="1" parent="aeDh_aWG_HRDVJIjq2gt-87">
          <mxGeometry y="60" width="30" height="30" as="geometry" />
        </mxCell>
        <mxCell id="aeDh_aWG_HRDVJIjq2gt-101" value="&amp;nbsp;" style="text;strokeColor=none;fillColor=none;align=left;verticalAlign=middle;spacingLeft=4;spacingRight=4;overflow=hidden;points=[[0,0.5],[1,0.5]];portConstraint=eastwest;rotatable=0;whiteSpace=wrap;html=1;labelBorderColor=none;" parent="aeDh_aWG_HRDVJIjq2gt-87" vertex="1">
          <mxGeometry y="90" width="30" height="30" as="geometry" />
        </mxCell>
        <mxCell id="UbY5IFC7gsjtDlBRMXSi-64" value="" style="group" vertex="1" connectable="0" parent="1">
          <mxGeometry x="220" y="540" width="190" height="120" as="geometry" />
        </mxCell>
        <mxCell id="UbY5IFC7gsjtDlBRMXSi-31" value="product" style="swimlane;fontStyle=0;childLayout=stackLayout;horizontal=1;startSize=30;horizontalStack=0;resizeParent=1;resizeParentMax=0;resizeLast=0;collapsible=1;marginBottom=0;html=1;align=center;" vertex="1" parent="UbY5IFC7gsjtDlBRMXSi-64">
          <mxGeometry x="30" width="160" height="120" as="geometry" />
        </mxCell>
        <mxCell id="UbY5IFC7gsjtDlBRMXSi-32" value="id&amp;nbsp; &amp;nbsp; &amp;nbsp; &amp;nbsp; &amp;nbsp; &amp;nbsp; &amp;nbsp; &amp;nbsp; &amp;nbsp; &amp;nbsp; &amp;nbsp; &amp;nbsp; &amp;nbsp; &amp;nbsp; &amp;nbsp; &amp;nbsp; &amp;nbsp;bigint" style="text;strokeColor=default;fillColor=none;align=left;verticalAlign=middle;spacingLeft=4;spacingRight=4;overflow=hidden;points=[[0,0.5],[1,0.5]];portConstraint=eastwest;rotatable=0;whiteSpace=wrap;html=1;" vertex="1" parent="UbY5IFC7gsjtDlBRMXSi-31">
          <mxGeometry y="30" width="160" height="30" as="geometry" />
        </mxCell>
        <mxCell id="UbY5IFC7gsjtDlBRMXSi-33" value="title&amp;nbsp; &amp;nbsp; &amp;nbsp; &amp;nbsp; &amp;nbsp; &amp;nbsp; &amp;nbsp; &amp;nbsp; &amp;nbsp; &amp;nbsp; &amp;nbsp; &amp;nbsp; &amp;nbsp; &amp;nbsp;varchar" style="text;strokeColor=default;fillColor=none;align=left;verticalAlign=middle;spacingLeft=4;spacingRight=4;overflow=hidden;points=[[0,0.5],[1,0.5]];portConstraint=eastwest;rotatable=0;whiteSpace=wrap;html=1;" vertex="1" parent="UbY5IFC7gsjtDlBRMXSi-31">
          <mxGeometry y="60" width="160" height="30" as="geometry" />
        </mxCell>
        <mxCell id="UbY5IFC7gsjtDlBRMXSi-34" value="energy_value&amp;nbsp; &amp;nbsp; &amp;nbsp; &amp;nbsp; &amp;nbsp; &amp;nbsp; integer" style="text;strokeColor=default;fillColor=none;align=left;verticalAlign=middle;spacingLeft=4;spacingRight=4;overflow=hidden;points=[[0,0.5],[1,0.5]];portConstraint=eastwest;rotatable=0;whiteSpace=wrap;html=1;" vertex="1" parent="UbY5IFC7gsjtDlBRMXSi-31">
          <mxGeometry y="90" width="160" height="30" as="geometry" />
        </mxCell>
        <mxCell id="UbY5IFC7gsjtDlBRMXSi-35" value="" style="endArrow=none;html=1;rounded=0;exitX=0.5;exitY=0.987;exitDx=0;exitDy=0;exitPerimeter=0;entryX=0.5;entryY=-0.003;entryDx=0;entryDy=0;entryPerimeter=0;" edge="1" parent="UbY5IFC7gsjtDlBRMXSi-31" source="UbY5IFC7gsjtDlBRMXSi-34" target="UbY5IFC7gsjtDlBRMXSi-32">
          <mxGeometry width="50" height="50" relative="1" as="geometry">
            <mxPoint x="90" y="110" as="sourcePoint" />
            <mxPoint x="140" y="60" as="targetPoint" />
          </mxGeometry>
        </mxCell>
        <mxCell id="UbY5IFC7gsjtDlBRMXSi-36" value="" style="swimlane;fontStyle=0;childLayout=stackLayout;horizontal=1;startSize=30;horizontalStack=0;resizeParent=1;resizeParentMax=0;resizeLast=0;collapsible=1;marginBottom=0;whiteSpace=wrap;html=1;" vertex="1" parent="UbY5IFC7gsjtDlBRMXSi-64">
          <mxGeometry width="30" height="120" as="geometry" />
        </mxCell>
        <mxCell id="UbY5IFC7gsjtDlBRMXSi-37" value="PK" style="text;strokeColor=none;fillColor=none;align=left;verticalAlign=middle;spacingLeft=4;spacingRight=4;overflow=hidden;points=[[0,0.5],[1,0.5]];portConstraint=eastwest;rotatable=0;whiteSpace=wrap;html=1;labelBorderColor=none;fontStyle=1" vertex="1" parent="UbY5IFC7gsjtDlBRMXSi-36">
          <mxGeometry y="30" width="30" height="30" as="geometry" />
        </mxCell>
        <mxCell id="UbY5IFC7gsjtDlBRMXSi-38" value="&amp;nbsp;" style="text;strokeColor=none;fillColor=none;align=left;verticalAlign=middle;spacingLeft=4;spacingRight=4;overflow=hidden;points=[[0,0.5],[1,0.5]];portConstraint=eastwest;rotatable=0;whiteSpace=wrap;html=1;labelBorderColor=none;" vertex="1" parent="UbY5IFC7gsjtDlBRMXSi-36">
          <mxGeometry y="60" width="30" height="30" as="geometry" />
        </mxCell>
        <mxCell id="UbY5IFC7gsjtDlBRMXSi-39" value="&amp;nbsp;" style="text;strokeColor=none;fillColor=none;align=left;verticalAlign=middle;spacingLeft=4;spacingRight=4;overflow=hidden;points=[[0,0.5],[1,0.5]];portConstraint=eastwest;rotatable=0;whiteSpace=wrap;html=1;labelBorderColor=none;" vertex="1" parent="UbY5IFC7gsjtDlBRMXSi-36">
          <mxGeometry y="90" width="30" height="30" as="geometry" />
        </mxCell>
        <mxCell id="UbY5IFC7gsjtDlBRMXSi-65" value="" style="edgeStyle=entityRelationEdgeStyle;fontSize=12;html=1;endArrow=ERoneToMany;rounded=0;exitX=1;exitY=0.5;exitDx=0;exitDy=0;entryX=0;entryY=0.5;entryDx=0;entryDy=0;" edge="1" parent="1" source="UbY5IFC7gsjtDlBRMXSi-50" target="UbY5IFC7gsjtDlBRMXSi-16">
          <mxGeometry width="100" height="100" relative="1" as="geometry">
            <mxPoint x="520" y="460" as="sourcePoint" />
            <mxPoint x="620" y="360" as="targetPoint" />
          </mxGeometry>
        </mxCell>
        <mxCell id="UbY5IFC7gsjtDlBRMXSi-67" value="" style="edgeStyle=entityRelationEdgeStyle;fontSize=12;html=1;endArrow=ERoneToMany;rounded=0;exitX=1;exitY=0.5;exitDx=0;exitDy=0;entryX=0;entryY=0.5;entryDx=0;entryDy=0;" edge="1" parent="1" source="UbY5IFC7gsjtDlBRMXSi-41" target="UbY5IFC7gsjtDlBRMXSi-17">
          <mxGeometry width="100" height="100" relative="1" as="geometry">
            <mxPoint x="910" y="670" as="sourcePoint" />
            <mxPoint x="1010" y="570" as="targetPoint" />
          </mxGeometry>
        </mxCell>
        <mxCell id="UbY5IFC7gsjtDlBRMXSi-68" value="" style="edgeStyle=entityRelationEdgeStyle;fontSize=12;html=1;endArrow=ERoneToMany;rounded=0;exitX=1;exitY=0.5;exitDx=0;exitDy=0;entryX=0;entryY=0.5;entryDx=0;entryDy=0;" edge="1" parent="1" source="aeDh_aWG_HRDVJIjq2gt-41" target="UbY5IFC7gsjtDlBRMXSi-12">
          <mxGeometry width="100" height="100" relative="1" as="geometry">
            <mxPoint x="850" y="880" as="sourcePoint" />
            <mxPoint x="950" y="780" as="targetPoint" />
          </mxGeometry>
        </mxCell>
        <mxCell id="UbY5IFC7gsjtDlBRMXSi-70" value="" style="edgeStyle=entityRelationEdgeStyle;fontSize=12;html=1;endArrow=ERoneToMany;rounded=0;exitX=1;exitY=0.5;exitDx=0;exitDy=0;entryX=0;entryY=0.5;entryDx=0;entryDy=0;" edge="1" parent="1" source="UbY5IFC7gsjtDlBRMXSi-32" target="UbY5IFC7gsjtDlBRMXSi-47">
          <mxGeometry width="100" height="100" relative="1" as="geometry">
            <mxPoint x="394" y="625" as="sourcePoint" />
            <mxPoint x="724" y="510" as="targetPoint" />
          </mxGeometry>
        </mxCell>
        <mxCell id="UbY5IFC7gsjtDlBRMXSi-71" value="" style="edgeStyle=entityRelationEdgeStyle;fontSize=12;html=1;endArrow=ERoneToMany;rounded=0;exitX=1;exitY=0.5;exitDx=0;exitDy=0;entryX=0;entryY=0.5;entryDx=0;entryDy=0;" edge="1" parent="1" source="aeDh_aWG_HRDVJIjq2gt-16" target="aeDh_aWG_HRDVJIjq2gt-109">
          <mxGeometry width="100" height="100" relative="1" as="geometry">
            <mxPoint x="850" y="640" as="sourcePoint" />
            <mxPoint x="950" y="540" as="targetPoint" />
          </mxGeometry>
        </mxCell>
        <mxCell id="UbY5IFC7gsjtDlBRMXSi-72" value="" style="edgeStyle=entityRelationEdgeStyle;fontSize=12;html=1;endArrow=ERoneToMany;rounded=0;exitX=1;exitY=0.5;exitDx=0;exitDy=0;entryX=0;entryY=0.5;entryDx=0;entryDy=0;" edge="1" parent="1" source="aeDh_aWG_HRDVJIjq2gt-16" target="UbY5IFC7gsjtDlBRMXSi-30">
          <mxGeometry width="100" height="100" relative="1" as="geometry">
            <mxPoint x="1100" y="640" as="sourcePoint" />
            <mxPoint x="1200" y="540" as="targetPoint" />
          </mxGeometry>
        </mxCell>
        <mxCell id="UbY5IFC7gsjtDlBRMXSi-73" value="" style="edgeStyle=entityRelationEdgeStyle;fontSize=12;html=1;endArrow=ERoneToMany;rounded=0;exitX=1;exitY=0.5;exitDx=0;exitDy=0;entryX=0;entryY=0.5;entryDx=0;entryDy=0;" edge="1" parent="1" source="aeDh_aWG_HRDVJIjq2gt-16" target="UbY5IFC7gsjtDlBRMXSi-29">
          <mxGeometry width="100" height="100" relative="1" as="geometry">
            <mxPoint x="1100" y="640" as="sourcePoint" />
            <mxPoint x="1200" y="540" as="targetPoint" />
          </mxGeometry>
        </mxCell>
      </root>
    </mxGraphModel>
  </diagram>
</mxfile>
